{
	"asset":{
		"generator":"Khronos glTF Blender I/O v4.5.48",
		"version":"2.0"
	},
	"scene":0,
	"scenes":[
		{
			"name":"Scene",
			"nodes":[
				0
			]
		}
	],
	"nodes":[
		{
			"mesh":0,
			"name":"Sphere.002",
			"scale":[
				11.067866325378418,
				11.067866325378418,
				11.067866325378418
			]
		}
	],
	"materials":[
		{
			"doubleSided":true,
			"name":"Material.002",
			"pbrMetallicRoughness":{
				"baseColorTexture":{
					"index":0
				},
				"metallicFactor":0,
				"roughnessFactor":0.5
			}
		}
	],
	"meshes":[
		{
			"name":"Sphere.005",
			"primitives":[
				{
					"attributes":{
						"POSITION":0,
						"NORMAL":1,
						"TEXCOORD_0":2
					},
					"indices":3,
					"material":0
				}
			]
		}
	],
	"textures":[
		{
			"sampler":0,
			"source":0
		}
	],
	"images":[
		{
			"mimeType":"image/jpeg",
			"name":"earth albedo.jpg",
			"uri":"earth albedo.jpg"
		}
	],
	"accessors":[
		{
			"bufferView":0,
			"componentType":5126,
			"count":126976,
			"max":[
				0.9872310161590576,
				0.9975767135620117,
				0.9872307181358337
			],
			"min":[
				-0.9872305393218994,
				-0.9975767135620117,
				-0.9872310161590576
			],
			"type":"VEC3"
		},
		{
			"bufferView":1,
			"componentType":5126,
			"count":126976,
			"type":"VEC3"
		},
		{
			"bufferView":2,
			"componentType":5126,
			"count":126976,
			"type":"VEC2"
		},
		{
			"bufferView":3,
			"componentType":5125,
			"count":190464,
			"type":"SCALAR"
		}
	],
	"bufferViews":[
		{
			"buffer":0,
			"byteLength":1523712,
			"byteOffset":0,
			"target":34962
		},
		{
			"buffer":0,
			"byteLength":1523712,
			"byteOffset":1523712,
			"target":34962
		},
		{
			"buffer":0,
			"byteLength":1015808,
			"byteOffset":3047424,
			"target":34962
		},
		{
			"buffer":0,
			"byteLength":761856,
			"byteOffset":4063232,
			"target":34963
		}
	],
	"samplers":[
		{
			"magFilter":9729,
			"minFilter":9987
		}
	],
	"buffers":[
		{
			"byteLength":4825088,
			"uri":"Earth.bin"
		}
	]
}
