{
	"asset":{
		"generator":"Khronos glTF Blender I/O v4.5.48",
		"version":"2.0"
	},
	"scene":0,
	"scenes":[
		{
			"name":"Scene",
			"nodes":[
				0
			]
		}
	],
	"nodes":[
		{
			"mesh":0,
			"name":"Object_251"
		}
	],
	"materials":[
		{
			"doubleSided":true,
			"name":"Material",
			"pbrMetallicRoughness":{
				"baseColorFactor":[
					0,
					1,
					0.6147472858428955,
					1
				],
				"metallicFactor":0,
				"roughnessFactor":0.5
			}
		}
	],
	"meshes":[
		{
			"name":"Object_149.001",
			"primitives":[
				{
					"attributes":{
						"POSITION":0,
						"NORMAL":1,
						"COLOR_0":2,
						"COLOR_1":3
					},
					"indices":4,
					"material":0
				}
			]
		}
	],
	"accessors":[
		{
			"bufferView":0,
			"componentType":5126,
			"count":612512,
			"max":[
				0.9978203773498535,
				0.9954450130462646,
				0.9887135028839111
			],
			"min":[
				-0.843712329864502,
				-1.000243067741394,
				-0.993274450302124
			],
			"type":"VEC3"
		},
		{
			"bufferView":1,
			"componentType":5126,
			"count":612512,
			"type":"VEC3"
		},
		{
			"bufferView":2,
			"componentType":5121,
			"count":612512,
			"normalized":true,
			"type":"VEC4"
		},
		{
			"bufferView":3,
			"componentType":5123,
			"count":612512,
			"normalized":true,
			"type":"VEC4"
		},
		{
			"bufferView":4,
			"componentType":5125,
			"count":803922,
			"type":"SCALAR"
		}
	],
	"bufferViews":[
		{
			"buffer":0,
			"byteLength":7350144,
			"byteOffset":0,
			"target":34962
		},
		{
			"buffer":0,
			"byteLength":7350144,
			"byteOffset":7350144,
			"target":34962
		},
		{
			"buffer":0,
			"byteLength":2450048,
			"byteOffset":14700288,
			"target":34962
		},
		{
			"buffer":0,
			"byteLength":4900096,
			"byteOffset":17150336,
			"target":34962
		},
		{
			"buffer":0,
			"byteLength":3215688,
			"byteOffset":22050432,
			"target":34963
		}
	],
	"buffers":[
		{
			"byteLength":25266120,
			"uri":"HologramGlobe.bin"
		}
	]
}
