{
	"asset":{
		"generator":"Khronos glTF Blender I/O v4.5.48",
		"version":"2.0"
	},
	"scene":0,
	"scenes":[
		{
			"name":"Scene",
			"nodes":[
				0
			]
		}
	],
	"nodes":[
		{
			"mesh":0,
			"name":"Cube",
			"scale":[
				0.12058227509260178,
				0.12058227509260178,
				0.12058227509260178
			]
		}
	],
	"materials":[
		{
			"doubleSided":true,
			"name":"Material.001",
			"pbrMetallicRoughness":{
				"metallicFactor":0,
				"roughnessFactor":0.5
			}
		}
	],
	"meshes":[
		{
			"name":"Cube.001",
			"primitives":[
				{
					"attributes":{
						"POSITION":0,
						"NORMAL":1,
						"TEXCOORD_0":2
					},
					"indices":3,
					"material":0
				}
			]
		}
	],
	"accessors":[
		{
			"bufferView":0,
			"componentType":5126,
			"count":2194,
			"max":[
				11.865195274353027,
				5.3672380447387695,
				12.313891410827637
			],
			"min":[
				-11.865195274353027,
				-1.6179094314575195,
				-10.050023078918457
			],
			"type":"VEC3"
		},
		{
			"bufferView":1,
			"componentType":5126,
			"count":2194,
			"type":"VEC3"
		},
		{
			"bufferView":2,
			"componentType":5126,
			"count":2194,
			"type":"VEC2"
		},
		{
			"bufferView":3,
			"componentType":5123,
			"count":3642,
			"type":"SCALAR"
		}
	],
	"bufferViews":[
		{
			"buffer":0,
			"byteLength":26328,
			"byteOffset":0,
			"target":34962
		},
		{
			"buffer":0,
			"byteLength":26328,
			"byteOffset":26328,
			"target":34962
		},
		{
			"buffer":0,
			"byteLength":17552,
			"byteOffset":52656,
			"target":34962
		},
		{
			"buffer":0,
			"byteLength":7284,
			"byteOffset":70208,
			"target":34963
		}
	],
	"buffers":[
		{
			"byteLength":77492,
			"uri":"LowPolyPassengerPlane.bin"
		}
	]
}
